<?xml version="1.0" encoding="UTF-8"?>
<svg width="190" id="b" data-name="Layer 2" xmlns="http://www.w3.org/2000/svg" xmlns:xlink="http://www.w3.org/1999/xlink" viewBox="0 0 380.71 318.79">
  <defs>
    <linearGradient id="d" x1="191.19" y1="0" x2="191.19" y2="154.07" gradientUnits="userSpaceOnUse">
      <stop offset="0" stop-color="#06ab54"/>
      <stop offset="1" stop-color="#049347"/>
    </linearGradient>
    <linearGradient id="e" x1="223.46" y1="94.38" x2="223.46" y2="136.34" xlink:href="#d"/>
  </defs>
  <g id="c" data-name="Layer 1">
    <g>
      <path d="M.04,222.74c0-14.79,3.96-26.5,11.9-35.13,8.47-8.63,19.56-12.94,33.26-12.94s24.61,4.32,33.26,12.94c8.11,8.81,12.17,20.52,12.17,35.13s-4.06,26.24-12.17,34.87c-8.29,8.45-19.38,12.68-33.26,12.68s-25.15-4.23-33.26-12.68C4,249.16,.04,237.53,.04,222.74Zm19.2,0c0,10.21,2.25,17.96,6.76,23.24,4.5,5.46,10.9,8.19,19.2,8.19s14.51-2.73,19.2-8.19c4.69-5.63,7.03-13.38,7.03-23.24s-2.34-17.7-7.03-23.51c-4.69-5.46-11.09-8.19-19.2-8.19s-14.69,2.73-19.2,8.19c-4.51,5.46-6.76,13.3-6.76,23.51Z" style="fill: #06ab54;"/>
      <path d="M96.79,244.93h18.39c.18,3.52,1.53,6.17,4.06,7.92,2.7,1.76,6.31,2.64,10.82,2.64,3.25,0,6.04-.61,8.38-1.85,2.16-1.23,3.25-2.91,3.25-5.02,0-3.17-3.79-5.55-11.36-7.13-3.24-.53-5.68-1.06-7.3-1.58-9.56-2.29-15.95-5.02-19.2-8.19-3.61-3.17-5.41-7.4-5.41-12.68,0-6.69,2.61-12.24,7.84-16.64,5.41-4.05,12.44-6.08,21.09-6.08,9.37,0,16.85,2.03,22.44,6.08,5.23,4.4,8.02,10.13,8.38,17.17h-11.63c-3.43,0-6.04-1.49-7.84-4.49-.72-.7-1.44-1.41-2.16-2.11-2.16-1.58-5.14-2.38-8.92-2.38s-6.31,.53-8.11,1.58c-1.62,1.06-2.43,2.64-2.43,4.75,0,2.82,4.69,5.2,14.06,7.13,1.08,.35,2.03,.62,2.84,.79,.81,.18,1.58,.26,2.3,.26,9.19,2.29,15.59,4.93,19.2,7.92,3.42,3.17,5.14,7.4,5.14,12.68,0,7.75-2.89,13.74-8.65,17.96-5.41,3.88-13.52,5.81-24.34,5.81s-17.94-2.02-22.98-6.08c-5.23-4.05-7.84-9.95-7.84-17.7v-.79Z" style="fill: #06ab54;"/>
      <path d="M198.94,268.17c-5.95,.35-12.4,.26-19.33-.26-6.94-.53-10.41-4.84-10.41-12.94v-77.66h9.73c2.34,0,4.42,.88,6.22,2.64,1.8,1.76,2.7,3.88,2.7,6.34v11.89h11.09v3.7c0,2.64-.9,4.8-2.7,6.47-1.8,1.68-3.97,2.51-6.49,2.51h-1.89v39.09c0,3,1.8,4.49,5.41,4.49h5.68v13.74Z" style="fill: #06ab54;"/>
      <path d="M250,265.27c-3.79,1.94-7.8,3.12-12.03,3.57-4.24,.44-7.98,.66-11.22,.66-6.49,0-12.17-1.72-17.04-5.15-4.87-3.43-7.3-9.11-7.3-17.04,0-7.4,2.21-12.68,6.62-15.85,4.42-3.17,10.05-5.28,16.9-6.34,.9,0,1.98-.13,3.25-.4,1.26-.26,2.7-.48,4.33-.66,7.93-1.06,11.9-3.34,11.9-6.87,0-2.64-1.4-4.36-4.19-5.15-2.8-.79-5.37-1.19-7.71-1.19-2.53,0-4.78,.35-6.76,1.06-1.99,.71-3.43,2.03-4.33,3.96h-18.12c.72-5.46,3.25-9.95,7.57-13.47,4.87-4.05,11.8-6.08,20.82-6.08,10.09,0,17.66,1.68,22.71,5.02,5.23,3.52,7.84,8.45,7.84,14.79v24.04c0,7.05-1.31,12.55-3.92,16.51-2.62,3.96-5.72,6.83-9.33,8.58Zm-4.33-32.49c-2.53,1.23-6.04,2.38-10.54,3.43l-6.22,1.32c-3.25,.88-5.59,2.03-7.03,3.43-1.26,1.94-1.89,3.88-1.89,5.81,0,2.64,.81,4.75,2.43,6.34,1.62,1.41,3.96,2.11,7.03,2.11,5.04,0,9.01-1.41,11.9-4.23,2.88-2.81,4.33-6.69,4.33-11.62v-6.6Z" style="fill: #06ab54;"/>
      <path d="M269.41,268.17v-34.07c0-6.87,1.04-12.63,3.11-17.3,2.07-4.66,4.91-8.41,8.52-11.23,3.42-2.64,7.44-4.58,12.03-5.81,4.6-1.23,9.33-1.85,14.2-1.85h2.7v18.75h-6.22c-5.23,0-9.1,1.23-11.63,3.7-2.53,2.47-3.79,6.34-3.79,11.62v36.19h-18.93Z" style="fill: #06ab54;"/>
      <path d="M361.29,265.27c-3.79,1.94-7.8,3.12-12.03,3.57-4.24,.44-7.98,.66-11.22,.66-6.49,0-12.17-1.72-17.04-5.15-4.87-3.43-7.3-9.11-7.3-17.04,0-7.4,2.21-12.68,6.62-15.85,4.42-3.17,10.05-5.28,16.9-6.34,.9,0,1.98-.13,3.25-.4,1.26-.26,2.7-.48,4.33-.66,7.93-1.06,11.9-3.34,11.9-6.87,0-2.64-1.4-4.36-4.19-5.15-2.8-.79-5.37-1.19-7.71-1.19-2.53,0-4.78,.35-6.76,1.06-1.99,.71-3.43,2.03-4.33,3.96h-18.12c.72-5.46,3.25-9.95,7.57-13.47,4.87-4.05,11.8-6.08,20.82-6.08,10.09,0,17.66,1.68,22.71,5.02,5.23,3.52,7.84,8.45,7.84,14.79v24.04c0,7.05-1.31,12.55-3.92,16.51-2.62,3.96-5.72,6.83-9.33,8.58Zm-4.33-32.49c-2.53,1.23-6.04,2.38-10.54,3.43l-6.22,1.32c-3.25,.88-5.59,2.03-7.03,3.43-1.26,1.94-1.89,3.88-1.89,5.81,0,2.64,.81,4.75,2.43,6.34,1.62,1.41,3.96,2.11,7.03,2.11,5.04,0,9.01-1.41,11.9-4.23,2.88-2.81,4.33-6.69,4.33-11.62v-6.6Z" style="fill: #06ab54;"/>
    </g>
    <g>
      <path d="M118.54,284.7c-.3-.1-.72-.2-1.26-.29-.54-.09-1-.13-1.38-.13-.99,0-1.75,.27-2.27,.81s-.79,1.41-.79,2.62v1.93h4.92v3.08h-4.92v16.41h-3.68v-16.41h-3.39v-3.08h3.39v-1.58c0-2.18,.5-3.87,1.51-5.07,1.01-1.19,2.58-1.79,4.73-1.79,.61,0,1.25,.05,1.92,.15,.67,.1,1.41,.27,2.21,.5l-.99,2.85Z" style="fill: #77787b;"/>
      <path d="M139.41,299.53c0,1.21-.17,2.4-.5,3.58-.33,1.18-.88,2.23-1.63,3.16-.76,.92-1.74,1.67-2.96,2.23-1.21,.57-2.7,.85-4.46,.85s-3.3-.29-4.53-.87c-1.23-.58-2.21-1.34-2.96-2.27s-1.28-1.99-1.61-3.16c-.33-1.17-.5-2.34-.5-3.53s.17-2.32,.5-3.51c.33-1.18,.87-2.25,1.61-3.2,.74-.95,1.73-1.72,2.96-2.31,1.23-.59,2.73-.89,4.53-.89s3.21,.29,4.42,.87c1.21,.58,2.2,1.34,2.96,2.27,.76,.94,1.31,2,1.65,3.18,.34,1.18,.52,2.38,.52,3.58Zm-4.01,0c0-.87-.1-1.71-.29-2.52-.19-.81-.51-1.53-.95-2.18-.44-.64-1.01-1.16-1.72-1.54s-1.56-.58-2.58-.58-1.93,.2-2.65,.6c-.72,.4-1.29,.92-1.72,1.56-.43,.64-.74,1.37-.93,2.2-.19,.82-.29,1.64-.29,2.47s.1,1.64,.29,2.45,.5,1.54,.93,2.18c.43,.64,1,1.16,1.72,1.54,.72,.39,1.6,.58,2.65,.58s1.88-.19,2.58-.58,1.27-.89,1.72-1.52c.44-.63,.76-1.35,.95-2.16,.19-.81,.29-1.64,.29-2.49Z" style="fill: #77787b;"/>
      <path d="M146.85,291.79l.08,.08c.58-.62,1.23-1.14,1.94-1.58,.72-.44,1.52-.65,2.4-.65s1.94,.27,3.27,.81l-1.2,3.08c-.39-.21-.75-.35-1.1-.44-.34-.09-.67-.13-.97-.13-.52,0-1.05,.12-1.57,.37-.52,.24-1,.62-1.43,1.14-.43,.51-.77,1.16-1.03,1.93-.26,.77-.39,1.68-.39,2.74v10.02h-3.72v-19.07h3.72v1.73Z" style="fill: #77787b;"/>
      <path d="M181.33,287.78c-.94-.33-1.92-.64-2.93-.91-1.02-.27-2.03-.4-3.02-.4-1.82,0-3.14,.33-3.95,.98-.81,.65-1.22,1.56-1.22,2.72,0,.59,.16,1.1,.48,1.52,.32,.42,.73,.8,1.24,1.14,.51,.33,1.1,.63,1.78,.89,.68,.26,1.38,.51,2.13,.77,.94,.33,1.88,.69,2.83,1.08s1.8,.85,2.56,1.41c.76,.55,1.37,1.23,1.84,2.02,.47,.8,.7,1.77,.7,2.93,0,1.46-.25,2.67-.76,3.62-.51,.95-1.19,1.71-2.05,2.27-.85,.57-1.84,.96-2.96,1.19-1.12,.23-2.29,.35-3.53,.35-1.49,0-2.97-.15-4.44-.46-1.47-.31-2.83-.71-4.07-1.19l1.28-3.2c.96,.41,2.07,.76,3.31,1.06,1.24,.3,2.47,.44,3.68,.44,.66,0,1.29-.09,1.9-.27,.61-.18,1.14-.44,1.61-.77,.47-.33,.84-.73,1.12-1.19,.27-.46,.41-.98,.41-1.54,0-.62-.17-1.16-.5-1.62-.33-.46-.77-.87-1.32-1.23-.55-.36-1.19-.68-1.9-.96-.72-.28-1.45-.56-2.19-.85-.91-.31-1.82-.66-2.73-1.04-.91-.39-1.73-.85-2.46-1.39-.73-.54-1.33-1.18-1.8-1.91-.47-.73-.7-1.61-.7-2.64,0-1.34,.27-2.47,.81-3.41,.54-.94,1.25-1.71,2.15-2.31,.9-.6,1.92-1.04,3.06-1.31s2.32-.4,3.53-.4,2.42,.15,3.7,.46c1.28,.31,2.5,.67,3.66,1.08l-1.24,3.08Z" style="fill: #77787b;"/>
      <path d="M191.33,291.63l.12,.04c.72-.67,1.56-1.18,2.52-1.54,.96-.36,1.97-.53,3.02-.5,.91,.03,1.77,.13,2.58,.31,.81,.18,1.55,.47,2.21,.87,.66,.4,1.25,.94,1.76,1.62,.51,.68,.94,1.54,1.3,2.56,.5,1.36,.74,2.83,.74,4.39,0,1.41-.2,2.72-.6,3.93-.4,1.21-.98,2.26-1.74,3.16-.76,.9-1.69,1.61-2.81,2.12-1.12,.51-2.39,.77-3.82,.77-1.1,0-2.07-.1-2.89-.31-.83-.21-1.63-.53-2.4-.96v9.52h-3.64v-27.74h3.64v1.77Zm0,12.98c1.38,1.1,2.95,1.66,4.71,1.66,1.02,0,1.89-.17,2.6-.52,.72-.35,1.29-.83,1.71-1.44,.43-.62,.74-1.34,.93-2.18,.19-.83,.29-1.75,.29-2.75,0-.92-.08-1.79-.25-2.6s-.44-1.52-.83-2.12c-.39-.6-.88-1.08-1.49-1.43-.61-.35-1.36-.52-2.27-.52-1.52,0-2.76,.46-3.72,1.39-.36,.44-.64,.83-.85,1.19-.21,.36-.37,.75-.48,1.16-.11,.41-.19,.87-.25,1.39-.06,.51-.1,1.13-.12,1.85v4.93Z" style="fill: #77787b;"/>
      <path d="M213.07,291.79l.08,.08c.58-.62,1.23-1.14,1.94-1.58,.72-.44,1.52-.65,2.4-.65s1.94,.27,3.27,.81l-1.2,3.08c-.39-.21-.75-.35-1.1-.44-.34-.09-.67-.13-.97-.13-.52,0-1.05,.12-1.57,.37-.52,.24-1,.62-1.43,1.14-.43,.51-.77,1.16-1.03,1.93s-.39,1.68-.39,2.74v10.02h-3.72v-19.07h3.72v1.73Z" style="fill: #77787b;"/>
      <path d="M223.9,284.39c0-.67,.24-1.23,.72-1.7,.48-.46,1.08-.69,1.8-.69s1.32,.23,1.82,.69,.74,1.03,.74,1.7-.25,1.23-.74,1.68c-.5,.45-1.1,.67-1.82,.67s-1.32-.22-1.8-.67c-.48-.45-.72-1.01-.72-1.68Zm.74,24.74v-19.11h3.72v19.11h-3.72Z" style="fill: #77787b;"/>
      <path d="M237.37,291.94l.08,.08c.88-.82,1.81-1.42,2.79-1.79,.98-.37,1.99-.57,3.04-.6h.17c.66,0,1.32,.07,1.98,.21,.66,.14,1.28,.35,1.86,.62,.58,.27,1.1,.62,1.57,1.06,.47,.44,.84,.94,1.12,1.5,.39,.75,.58,2.12,.58,4.12v11.98h-3.72v-12.68c0-.77-.1-1.39-.31-1.87-.21-.48-.48-.85-.81-1.14-.33-.28-.72-.48-1.16-.58-.44-.1-.88-.15-1.32-.15-.96,0-1.82,.19-2.56,.56-.74,.37-1.36,.87-1.86,1.5-.5,.63-.86,1.36-1.09,2.2-.24,.83-.35,1.71-.35,2.64v9.52h-3.72v-19.26h3.72v2.08Z" style="fill: #77787b;"/>
      <path d="M270.73,293.21v.04c.44,.59,.72,1.18,.85,1.77,.12,.59,.19,1.18,.19,1.77,0,1.05-.22,2-.66,2.83-.44,.83-1.04,1.54-1.8,2.12-.76,.58-1.65,1.02-2.67,1.33-1.02,.31-2.11,.46-3.27,.46-.3,0-.68,.02-1.12,.06s-.87,.1-1.28,.19c-.41,.09-.77,.23-1.07,.4-.3,.18-.47,.4-.5,.65,0,.13,.03,.27,.08,.42,.06,.15,.17,.3,.35,.42,.18,.13,.46,.23,.85,.31,.39,.08,.91,.12,1.57,.12h2.98c1.16,0,2.2,.11,3.14,.33,.94,.22,1.74,.55,2.42,1,.67,.45,1.2,1.02,1.57,1.71s.56,1.52,.56,2.47c0,2.26-.76,3.87-2.27,4.84-1.52,.96-3.65,1.44-6.41,1.44-3.17,0-5.53-.52-7.09-1.56-1.56-1.04-2.34-2.38-2.34-4.03,0-1.26,.23-2.24,.7-2.95s1.02-1.23,1.65-1.56v-.04c-.39-.21-.73-.5-1.03-.89-.3-.39-.46-.89-.46-1.5,0-.23,.03-.49,.08-.77,.05-.28,.17-.58,.35-.89,.18-.31,.44-.61,.79-.91,.34-.29,.79-.55,1.34-.75-.3-.15-.63-.36-.97-.62-.34-.26-.67-.6-.97-1.04-.3-.44-.56-.96-.76-1.58-.21-.62-.31-1.37-.31-2.27,0-.95,.2-1.84,.6-2.68,.4-.83,.96-1.57,1.7-2.2,.73-.63,1.6-1.12,2.62-1.48,1.02-.36,2.13-.54,3.35-.54,.55,0,1.12,.03,1.72,.08,.59,.05,1.14,.12,1.63,.19,.5,.05,.99,.11,1.49,.17,.5,.06,.98,.1,1.45,.1,.52,0,1.08-.06,1.67-.19,.59-.13,1.25-.37,1.96-.73l.99,3.04c-.55,.23-1.15,.42-1.8,.58s-1.27,.26-1.88,.31Zm-7.61,15.99c-.52,0-1.05,.04-1.59,.12-.54,.08-1.03,.22-1.49,.44-.46,.22-.83,.51-1.12,.89-.29,.37-.43,.84-.43,1.41,0,.82,.47,1.5,1.41,2.04,.94,.54,2.3,.81,4.09,.81,1.57,0,2.84-.24,3.82-.73,.98-.49,1.47-1.27,1.47-2.35,0-.54-.15-.98-.46-1.33-.3-.35-.69-.62-1.16-.81-.47-.19-.97-.32-1.51-.39-.54-.06-1.04-.1-1.51-.1h-1.53Zm.54-16.41c-1.43,0-2.56,.34-3.39,1.02-.83,.68-1.24,1.61-1.24,2.79s.41,2.14,1.22,2.87,1.85,1.1,3.12,1.1c1.49,0,2.65-.39,3.47-1.16,.83-.77,1.24-1.75,1.24-2.93,0-.36-.08-.76-.23-1.19-.15-.44-.4-.84-.74-1.21-.35-.37-.8-.68-1.36-.92-.57-.24-1.26-.37-2.09-.37Z" style="fill: #77787b;"/>
    </g>
    <g>
      <g>
        <path d="M263.86,0H118.65c-4.47,0-8.12,3.65-8.12,8.12l-.03,95.72h0c-.13,2.41-.12,4.73,0,6.97v1.19s.08,.06,.08,.06c1.83,23.37,17.74,36.48,40.04,34.67,50.49-4.08,74.49-67.41,59.77-114.64-2.83,25.19-47.54,28.29-52.04,58.86-1.46,9.98,2.45,19.39,8.25,25.02-11.42,8.71-20.14,10.23-20.14,10.23,10.28,.24,19.39-4.14,25.47-8.09,0,0,0,0,0,0,.19-.12,.37-.24,.55-.36,1.34-.87,2.69-1.85,4.04-2.93,1.63-1.29,2.68-2.26,3.05-2.61,12.84-11.69,25.06-31.7,27.74-50.61,1.52,40.85-34.4,72.03-60.13,71.06-21.92-.86-23.57-18.62-23.69-35.61l.02-71.43h135.48l-.03,114.95h-75.53c-9.13,7.27-21.47,11.5-30.33,13.51h110.72c4.44,0,8.09-3.65,8.09-8.12l.06-137.82c0-4.47-3.65-8.12-8.12-8.12Z" style="fill: url(#d); fill-rule: evenodd;"/>
        <path d="M197.88,132.13c7.85,4.87,22.87,6.84,31.79-1.49,11.29-10.49,11.74-32.91,19.38-35.98-28.14-2.68-44.74,14.39-46.14,31.57,14.24-.33,22.78-10.86,25.52-16.49-1.67,14.05-18.25,21.57-30.54,22.39Z" style="fill: url(#e); fill-rule: evenodd;"/>
      </g>
      <path d="M128.2,8.94c2.53,0,4.59,2.07,4.59,4.59s-2.07,4.59-4.59,4.59-4.59-2.04-4.59-4.59,2.04-4.59,4.59-4.59h0Z" style="fill: #fff; fill-rule: evenodd;"/>
      <path d="M142.43,8.94c2.52,0,4.59,2.07,4.59,4.59s-2.07,4.59-4.59,4.59-4.59-2.04-4.59-4.59,2.07-4.59,4.59-4.59h0Z" style="fill: #fff; fill-rule: evenodd;"/>
      <path d="M156.67,8.94c2.55,0,4.59,2.07,4.59,4.59s-2.04,4.59-4.59,4.59-4.59-2.04-4.59-4.59,2.07-4.59,4.59-4.59h0Z" style="fill: #fff; fill-rule: evenodd;"/>
    </g>
  </g>
</svg>
